<?xml version="1.0" encoding="iso-8859-1"?>
<!-- Generator: Adobe Illustrator 19.0.0, SVG Export Plug-In . SVG Version: 6.00 Build 0)  -->
<svg version="1.1" id="Layer_1" xmlns="http://www.w3.org/2000/svg" xmlns:xlink="http://www.w3.org/1999/xlink" x="0px" y="0px"
	 viewBox="0 0 512 512" style="enable-background:new 0 0 512 512;" xml:space="preserve">
<circle style="fill:#ffdd00;" cx="256" cy="256" r="256"/>
<path style="fill:#e9c700;" d="M509.281,293.161L392.22,176.102c-1.487-1.485-3.405-2.209-5.338-2.209H172.608
	c-1.925,0-3.891,0.724-5.373,2.209c-1.487,1.485-2.207,3.41-2.207,5.376v17.452H96.707c-2.849,0-5.215,2.368-5.215,5.253v128.74
	c0,1.08,0.323,2.084,0.881,2.929l175.834,175.841C391.439,505.897,491.85,412.995,509.281,293.161z"/>
<path style="fill:#34495E;" d="M394.468,318.372c0,1.938-0.742,3.891-2.217,5.366c-1.49,1.498-3.428,2.227-5.376,2.227H172.623
	c-1.938,0-3.884-0.73-5.381-2.227c-1.467-1.475-2.212-3.428-2.212-5.366V181.45c0-1.946,0.745-3.884,2.212-5.371
	c1.495-1.467,3.441-2.214,5.381-2.214h214.252c1.948,0,3.886,0.748,5.376,2.214c1.475,1.487,2.217,3.423,2.217,5.371V318.372z"/>
<path style="fill:#283A4D;" d="M282.322,179.822c0,1.434-1.152,2.591-2.57,2.591c-1.434,0-2.578-1.16-2.578-2.591
	c0-1.426,1.144-2.563,2.578-2.563C281.17,177.257,282.322,178.396,282.322,179.822z"/>
<path style="fill:#5D6D7E;" d="M280.804,179.83c0,0.586-0.479,1.06-1.052,1.06c-0.584,0-1.055-0.474-1.055-1.06
	c0-0.576,0.474-1.037,1.055-1.037C280.328,178.793,280.804,179.254,280.804,179.83z"/>
<path style="fill:#CEE2F2;" d="M420.49,330.409c-4.088,4.721-10.143,7.718-16.878,7.718H155.886c-6.73,0-12.782-2.998-16.868-7.718
	H420.49z"/>
<path style="fill:#F2F9FF;" d="M420.483,330.429H139.018v-3.187c0-0.33,0.125-0.653,0.379-0.906
	c0.246-0.248,0.576-0.374,0.899-0.374h278.907c0.333,0,0.655,0.125,0.906,0.374c0.246,0.253,0.374,0.576,0.374,0.906V330.429z"/>
<path style="fill:#B8D1E6;" d="M305.892,326.715c0,0.387-0.148,0.773-0.451,1.075c-0.287,0.282-0.668,0.43-1.06,0.43h-49.265
	c-0.387,0-0.773-0.148-1.055-0.43c-0.302-0.302-0.448-0.689-0.448-1.075v-0.75h52.278V326.715L305.892,326.715z"/>
<rect x="176.973" y="185.549" style="fill:#FFFFFF;" width="205.542" height="128.461"/>
<rect x="185.523" y="192.742" style="fill:#FF8E31;" width="56.858" height="17.052"/>
<g>
	<rect x="251.315" y="192.742" style="fill:#E1EFFA;" width="124.006" height="17.052"/>
	<rect x="184.161" y="288.922" style="fill:#E1EFFA;" width="191.155" height="5.617"/>
	<rect x="184.161" y="301.21" style="fill:#E1EFFA;" width="191.155" height="5.612"/>
</g>
<g>
	<rect x="184.161" y="249.83" style="fill:#D0E070;" width="56.858" height="32.438"/>
	<rect x="251.315" y="249.83" style="fill:#D0E070;" width="56.858" height="32.438"/>
	<rect x="318.464" y="249.83" style="fill:#D0E070;" width="56.858" height="32.438"/>
</g>
<rect x="184.161" y="216.474" style="fill:#B8D1E6;" width="191.155" height="26.691"/>
<path style="fill:#2F445C;" d="M314.01,325.965H172.621c-1.946,0-3.891-0.742-5.376-2.227c-1.459-1.485-2.227-3.43-2.227-5.376
	V197.069h11.955v116.966H302.08L314.01,325.965z"/>
<path style="fill:#E2EFF9;" d="M302.08,314.035H176.973V197.069h5.248c1.203,0,2.33,0.307,3.302,0.819v11.904h12.288l6.682,6.682
	h-20.326v26.675h47.002l6.682,6.682h-53.683v32.435h56.858v-29.261l10.291,10.291v18.97h18.995l6.659,6.659h-92.803v5.629h98.432
	l6.659,6.659H184.166v5.604h110.694L302.08,314.035z"/>
<path style="fill:#E28430;" d="M197.811,209.792h-12.288v-11.904c0.486,0.282,0.947,0.589,1.357,0.947l0.64,0.666L197.811,209.792z"
	/>
<polygon style="fill:#A2C4E1;" points="231.168,243.149 184.166,243.149 184.166,216.474 204.493,216.474 "/>
<polygon style="fill:#B8D26E;" points="241.024,253.005 241.024,282.266 184.166,282.266 184.166,249.83 237.85,249.83 "/>
<g>
	<polygon style="fill:#C7E0F6;" points="282.598,294.554 184.166,294.554 184.166,288.922 276.966,288.922 	"/>
	<polygon style="fill:#C7E0F6;" points="294.861,306.816 184.166,306.816 184.166,301.21 289.254,301.21 	"/>
</g>
<polygon style="fill:#B8D26E;" points="270.31,282.266 251.315,282.266 251.315,263.296 "/>
<path style="fill:#34495E;" d="M91.512,204.152c0-2.87,2.34-5.222,5.215-5.222h85.489c2.872,0,5.22,2.353,5.22,5.222v128.765
	c0,2.872-2.348,5.21-5.22,5.21H96.727c-2.877,0-5.215-2.337-5.215-5.21V204.152z"/>
<g>
	<path style="fill:#283A4D;" d="M134.185,332.314c-1.28,0-2.324-1.044-2.324-2.324v-0.568c0-1.285,1.047-2.324,2.324-2.324h10.583
		c1.272,0,2.317,1.039,2.317,2.324v0.568c0,1.28-1.047,2.324-2.317,2.324H134.185z"/>
	<path style="fill:#283A4D;" d="M139.464,208.118c-1.321,0-2.371-1.06-2.371-2.396c0-1.303,1.05-2.383,2.371-2.383
		c1.318,0,2.396,1.08,2.396,2.383C141.857,207.058,140.78,208.118,139.464,208.118z"/>
</g>
<path style="fill:#5D6D7E;" d="M139.469,206.73c-0.55,0-0.993-0.445-0.993-1.004c0-0.543,0.443-0.993,0.993-0.993
	s1.001,0.451,1.001,0.993C140.472,206.285,140.022,206.73,139.469,206.73z"/>
<rect x="96.95" y="212.531" style="fill:#FFFFFF;" width="85.043" height="108.751"/>
<rect x="103.168" y="218.752" style="fill:#FF8E31;" width="33.28" height="12.877"/>
<g>
	<rect x="142.479" y="218.752" style="fill:#E1EFFA;" width="33.277" height="12.877"/>
	<rect x="103.168" y="301.517" style="fill:#E1EFFA;" width="72.581" height="4.239"/>
	<rect x="103.168" y="310.81" style="fill:#E1EFFA;" width="72.581" height="4.247"/>
</g>
<g>
	<rect x="103.168" y="265.344" style="fill:#D0E070;" width="33.28" height="31.132"/>
	<rect x="142.479" y="265.344" style="fill:#D0E070;" width="33.277" height="31.132"/>
</g>
<rect x="103.168" y="236.698" style="fill:#B8D1E6;" width="72.581" height="23.631"/>
</svg>
